<svg width="123" height="123" viewBox="0 0 123 123" fill="none" xmlns="http://www.w3.org/2000/svg">
<g clip-path="url(#clip0_36_175000)">
<path d="M26.6447 -64.0794L-43.5421 102.938" stroke="white"/>
<path d="M37.379 -57.8822L-32.8077 109.135" stroke="white"/>
<path d="M48.1144 -51.6839L-21.8203 116.274" stroke="white"/>
<path d="M57.9081 -45.2346L-11.0859 122.471" stroke="white"/>
<path d="M68.8956 -38.096L-1.2911 128.921" stroke="white"/>
<path d="M79.63 -31.8978L9.69533 136.06" stroke="white"/>
<path d="M90.3644 -25.7005L20.4297 142.257" stroke="white"/>
<path d="M101.352 -18.5619L31.165 148.455" stroke="white"/>
<path d="M112.086 -12.3636L41.8993 154.653" stroke="white"/>
<path d="M122.821 -6.16635L52.8867 161.791" stroke="white"/>
<path d="M132.867 1.22438L63.621 167.989" stroke="white"/>
<path d="M143.603 7.42154L73.4159 174.439" stroke="white"/>
<path d="M154.337 13.6198L84.4024 181.578" stroke="white"/>
<path d="M165.324 20.7585L95.1376 187.776" stroke="white"/>
</g>
<defs>
<clipPath id="clip0_36_175000">
<rect width="100" height="100" fill="white" transform="translate(0 25.8818) rotate(-15)"/>
</clipPath>
</defs>
</svg>
