<svg width="176" height="342" viewBox="0 0 176 342" fill="none" xmlns="http://www.w3.org/2000/svg">
<g clip-path="url(#clip0_36_175032)">
<circle cx="172.369" cy="3.63158" r="3.63158" fill="white"/>
<circle cx="172.369" cy="59.3157" r="3.63158" fill="white"/>
<circle cx="172.369" cy="115" r="3.63158" fill="white"/>
<circle cx="172.369" cy="170.684" r="3.63158" fill="white"/>
<circle cx="172.369" cy="226.368" r="3.63158" fill="white"/>
<circle cx="172.369" cy="282.052" r="3.63158" fill="white"/>
<circle cx="172.369" cy="337.737" r="3.63158" fill="white"/>
<circle cx="116.684" cy="3.63158" r="3.63158" fill="white"/>
<circle cx="116.684" cy="59.3157" r="3.63158" fill="white"/>
<circle cx="116.684" cy="115" r="3.63158" fill="white"/>
<circle cx="116.684" cy="170.684" r="3.63158" fill="white"/>
<circle cx="116.684" cy="226.368" r="3.63158" fill="white"/>
<circle cx="116.684" cy="282.052" r="3.63158" fill="white"/>
<circle cx="116.684" cy="337.737" r="3.63158" fill="white"/>
<circle cx="60.9997" cy="3.63158" r="3.63158" fill="white"/>
<circle cx="60.9997" cy="59.3157" r="3.63158" fill="white"/>
<circle cx="60.9997" cy="115" r="3.63158" fill="white"/>
<circle cx="60.9997" cy="170.684" r="3.63158" fill="white"/>
<circle cx="60.9997" cy="226.368" r="3.63158" fill="white"/>
<circle cx="60.9997" cy="282.052" r="3.63158" fill="white"/>
<circle cx="60.9997" cy="337.737" r="3.63158" fill="white"/>
<circle cx="5.31615" cy="3.63158" r="3.63158" fill="white"/>
<circle cx="5.31615" cy="59.3157" r="3.63158" fill="white"/>
<circle cx="5.31615" cy="115" r="3.63158" fill="white"/>
<circle cx="5.31615" cy="170.684" r="3.63158" fill="white"/>
<circle cx="5.31615" cy="226.368" r="3.63158" fill="white"/>
<circle cx="5.31615" cy="282.052" r="3.63158" fill="white"/>
<circle cx="5.31615" cy="337.737" r="3.63158" fill="white"/>
</g>
<defs>
<clipPath id="clip0_36_175032">
<rect width="230" height="341.368" fill="white" transform="translate(-54)"/>
</clipPath>
</defs>
</svg>
