<svg width="166" height="166" viewBox="0 0 166 166" fill="none" xmlns="http://www.w3.org/2000/svg">
<g clip-path="url(#clip0_36_174537)">
<path fill-rule="evenodd" clip-rule="evenodd" d="M36.3492 4.24639C32.0567 2.74959 27.3635 5.01598 25.8667 9.30852L24.9225 8.97927C26.6011 4.16524 31.8645 1.6235 36.6785 3.30215C41.4925 4.98079 44.0342 10.2441 42.3556 15.0582L41.4114 14.7289C42.9082 10.4364 40.6418 5.74319 36.3492 4.24639ZM42.3558 15.0587C40.859 19.3512 43.1254 24.0444 47.4179 25.5412C51.7105 27.038 56.4037 24.7716 57.9005 20.4791L58.8447 20.8083C57.1661 25.6224 51.9027 28.1641 47.0887 26.4854C42.2747 24.8068 39.7329 19.5435 41.4116 14.7294L42.3558 15.0587ZM58.8453 20.8085C60.3421 16.5159 65.0352 14.2495 69.3278 15.7463C73.6203 17.2431 75.8867 21.9363 74.3899 26.2289L75.3341 26.5581C77.0128 21.7441 74.4711 16.4807 69.657 14.8021C64.843 13.1235 59.5797 15.6652 57.901 20.4792L58.8453 20.8085ZM75.3346 26.5583C73.8378 30.8508 76.1042 35.544 80.3967 37.0408C84.6893 38.5376 89.3825 36.2712 90.8793 31.9787L90.8797 31.9788C92.5585 27.165 97.8217 24.6234 102.636 26.302C107.45 27.9807 109.991 33.244 108.313 38.0581L107.368 37.7288C108.865 33.4363 106.599 28.7431 102.306 27.2463C98.0138 25.7495 93.3206 28.0159 91.8238 32.3084L91.8234 32.3083C90.1446 37.1221 84.8814 39.6637 80.0675 37.985C75.2534 36.3064 72.7117 31.0431 74.3904 26.229L75.3346 26.5583Z" fill="white"/>
<path fill-rule="evenodd" clip-rule="evenodd" d="M113.371 48.5386C109.078 47.0418 106.812 42.3486 108.309 38.056L107.365 37.7268C105.686 42.5408 108.228 47.8042 113.042 49.4828C117.856 51.1615 123.119 48.6197 124.798 43.8057L123.854 43.4764C122.357 47.769 117.664 50.0354 113.371 48.5386ZM124.796 43.8039C126.292 39.5114 130.986 37.245 135.278 38.7418C139.571 40.2386 141.837 44.9318 140.34 49.2243L141.284 49.5536C142.963 44.7395 140.421 39.4762 135.607 37.7976C130.793 36.1189 125.53 38.6606 123.851 43.4747L124.796 43.8039ZM141.285 49.5541C139.788 53.8466 142.054 58.5398 146.347 60.0366C150.639 61.5334 155.332 59.267 156.829 54.9745L157.774 55.3037C156.095 60.1178 150.832 62.6595 146.018 60.9809C141.203 59.3022 138.662 54.0389 140.34 49.2248L141.285 49.5541ZM157.774 55.3035C159.271 51.011 163.964 48.7446 168.257 50.2414C172.549 51.7382 174.816 56.4314 173.319 60.7239L174.263 61.0532C175.942 56.2391 173.4 50.9758 168.586 49.2972C163.772 47.6185 158.509 50.1602 156.83 54.9743L157.774 55.3035ZM174.263 61.0537C172.767 65.3462 175.033 70.0394 179.326 71.5362C183.618 73.033 188.311 70.7666 189.808 66.4741L190.752 66.8033C189.074 71.6174 183.81 74.1591 178.996 72.4805C174.182 70.8018 171.641 65.5385 173.319 60.7244L174.263 61.0537Z" fill="white"/>
<path fill-rule="evenodd" clip-rule="evenodd" d="M26.6432 32.0677C22.3506 30.5709 17.6574 32.8373 16.1606 37.1298L15.2164 36.8006C16.8951 31.9865 22.1584 29.4448 26.9724 31.1234C31.7865 32.8021 34.3282 38.0654 32.6495 42.8795L31.7053 42.5502C33.2021 38.2577 30.9357 33.5645 26.6432 32.0677ZM32.6498 42.88C31.153 47.1725 33.4194 51.8657 37.7119 53.3625C42.0044 54.8593 46.6976 52.5929 48.1944 48.3004L49.1387 48.6296C47.46 53.4436 42.1967 55.9854 37.3826 54.3067C32.5686 52.6281 30.0269 47.3647 31.7055 42.5507L32.6498 42.88ZM49.1392 48.6298C50.636 44.3372 55.3292 42.0708 59.6217 43.5676C63.9143 45.0644 66.1807 49.7576 64.6839 54.0502L65.6281 54.3794C67.3067 49.5654 64.765 44.302 59.951 42.6234C55.1369 40.9447 49.8736 43.4865 48.195 48.3005L49.1392 48.6298ZM65.6285 54.3796C64.1317 58.6721 66.3981 63.3653 70.6907 64.8621C74.9832 66.3589 79.6764 64.0925 81.1732 59.8L81.1736 59.8001C82.8524 54.9863 88.1156 52.4447 92.9295 54.1233C97.7435 55.802 100.285 61.0653 98.6066 65.8794L97.6624 65.5501C99.1592 61.2576 96.8928 56.5644 92.6003 55.0676C88.3077 53.5708 83.6145 55.8372 82.1177 60.1297L82.1173 60.1296C80.4385 64.9434 75.1753 67.4849 70.3614 65.8063C65.5474 64.1277 63.0057 58.8643 64.6843 54.0503L65.6285 54.3796Z" fill="white"/>
<path fill-rule="evenodd" clip-rule="evenodd" d="M103.665 76.3599C99.3724 74.8631 97.106 70.1699 98.6028 65.8773L97.6586 65.5481C95.9799 70.3621 98.5217 75.6255 103.336 77.3041C108.15 78.9827 113.413 76.441 115.092 71.627L114.147 71.2977C112.651 75.5903 107.958 77.8567 103.665 76.3599ZM115.089 71.6252C116.586 67.3327 121.279 65.0663 125.572 66.5631C129.865 68.0599 132.131 72.7531 130.634 77.0456L131.578 77.3749C133.257 72.5608 130.715 67.2975 125.901 65.6188C121.087 63.9402 115.824 66.4819 114.145 71.296L115.089 71.6252ZM131.579 77.3754C130.082 81.6679 132.348 86.3611 136.641 87.8579C140.933 89.3547 145.626 87.0883 147.123 82.7958L148.067 83.125C146.389 87.9391 141.125 90.4808 136.311 88.8021C131.497 87.1235 128.956 81.8602 130.634 77.0461L131.579 77.3754ZM148.068 83.1248C149.565 78.8323 154.258 76.5659 158.551 78.0627C162.843 79.5595 165.11 84.2527 163.613 88.5452L164.557 88.8745C166.236 84.0604 163.694 78.7971 158.88 77.1184C154.066 75.4398 148.803 77.9815 147.124 82.7956L148.068 83.1248ZM164.557 88.875C163.061 93.1675 165.327 97.8607 169.619 99.3575C173.912 100.854 178.605 98.5879 180.102 94.2954L181.046 94.6246C179.368 99.4387 174.104 101.98 169.29 100.302C164.476 98.6231 161.934 93.3598 163.613 88.5457L164.557 88.875Z" fill="white"/>
<path fill-rule="evenodd" clip-rule="evenodd" d="M16.9391 59.8899C12.6465 58.3931 7.95335 60.6595 6.45655 64.9521L5.51231 64.6228C7.19095 59.8088 12.4543 57.2671 17.2683 58.9457C22.0824 60.6243 24.6241 65.8877 22.9454 70.7017L22.0012 70.3725C23.498 66.0799 21.2316 61.3867 16.9391 59.8899ZM22.9457 70.7022C21.4489 74.9948 23.7153 79.688 28.0078 81.1848C32.3003 82.6816 36.9935 80.4152 38.4903 76.1226L39.4346 76.4519C37.7559 81.2659 32.4926 83.8076 27.6785 82.129C22.8645 80.4504 20.3228 75.187 22.0014 70.373L22.9457 70.7022ZM39.4351 76.452C40.9319 72.1595 45.6251 69.8931 49.9176 71.3899C54.2102 72.8867 56.4765 77.5799 54.9797 81.8724L55.924 82.2017C57.6026 77.3876 55.0609 72.1243 50.2469 70.4457C45.4328 68.767 40.1695 71.3087 38.4908 76.1228L39.4351 76.452ZM55.9244 82.2018C54.4276 86.4944 56.694 91.1876 60.9866 92.6844C65.2791 94.1812 69.9723 91.9148 71.4691 87.6222L71.4695 87.6224C73.1483 82.8086 78.4115 80.267 83.2254 81.9456C88.0395 83.6242 90.5812 88.8876 88.9025 93.7016L87.9583 93.3724C89.4551 89.0798 87.1887 84.3866 82.8962 82.8898C78.6036 81.393 73.9104 83.6594 72.4136 87.952L72.4132 87.9518C70.7344 92.7656 65.4712 95.3072 60.6573 93.6286C55.8433 91.95 53.3016 86.6866 54.9802 81.8726L55.9244 82.2018Z" fill="white"/>
<path fill-rule="evenodd" clip-rule="evenodd" d="M93.9648 104.185C89.6722 102.688 87.4058 97.9951 88.9026 93.7025L87.9584 93.3733C86.2798 98.1873 88.8215 103.451 93.6355 105.129C98.4495 106.808 103.713 104.266 105.392 99.4522L104.447 99.1229C102.95 103.415 98.2573 105.682 93.9648 104.185ZM105.389 99.4504C106.886 95.1579 111.579 92.8915 115.872 94.3883C120.164 95.8851 122.431 100.578 120.934 104.871L121.878 105.2C123.557 100.386 121.015 95.1227 116.201 93.444C111.387 91.7654 106.124 94.3071 104.445 99.1212L105.389 99.4504ZM121.878 105.201C120.382 109.493 122.648 114.186 126.941 115.683C131.233 117.18 135.926 114.914 137.423 110.621L138.367 110.95C136.689 115.764 131.425 118.306 126.611 116.627C121.797 114.949 119.255 109.685 120.934 104.871L121.878 105.201ZM138.368 110.95C139.865 106.657 144.558 104.391 148.851 105.888C153.143 107.385 155.41 112.078 153.913 116.37L154.857 116.7C156.536 111.886 153.994 106.622 149.18 104.944C144.366 103.265 139.102 105.807 137.424 110.621L138.368 110.95ZM154.857 116.7C153.36 120.993 155.627 125.686 159.919 127.183C164.212 128.68 168.905 126.413 170.402 122.121L171.346 122.45C169.667 127.264 164.404 129.806 159.59 128.127C154.776 126.448 152.234 121.185 153.913 116.371L154.857 116.7Z" fill="white"/>
<path fill-rule="evenodd" clip-rule="evenodd" d="M7.24278 87.7171C2.95024 86.2203 -1.74294 88.4867 -3.23974 92.7792L-4.18398 92.45C-2.50534 87.6359 2.75801 85.0942 7.57204 86.7729C12.3861 88.4515 14.9278 93.7148 13.2492 98.5289L12.3049 98.1996C13.8017 93.9071 11.5353 89.2139 7.24278 87.7171ZM13.2494 98.5294C11.7526 102.822 14.019 107.515 18.3115 109.012C22.604 110.509 27.2972 108.242 28.794 103.95L29.7383 104.279C28.0596 109.093 22.7963 111.635 17.9822 109.956C13.1682 108.278 10.6265 103.014 12.3051 98.2001L13.2494 98.5294ZM29.7388 104.279C31.2356 99.9866 35.9288 97.7202 40.2213 99.217C44.5139 100.714 46.7803 105.407 45.2835 109.7L46.2277 110.029C47.9063 105.215 45.3646 99.9514 40.5506 98.2728C35.7366 96.5942 30.4732 99.1359 28.7946 103.95L29.7388 104.279ZM46.2282 110.029C44.7314 114.322 46.9977 119.015 51.2903 120.512C55.5828 122.008 60.276 119.742 61.7728 115.449L61.7732 115.45C63.452 110.636 68.7152 108.094 73.5291 109.773C78.3432 111.451 80.8849 116.715 79.2063 121.529L78.262 121.2C79.7588 116.907 77.4924 112.214 73.1999 110.717C68.9073 109.22 64.2142 111.487 62.7174 115.779L62.7169 115.779C61.0382 120.593 55.7749 123.134 50.961 121.456C46.147 119.777 43.6053 114.514 45.2839 109.7L46.2282 110.029Z" fill="white"/>
<path fill-rule="evenodd" clip-rule="evenodd" d="M84.2646 132.009C79.972 130.512 77.7056 125.819 79.2024 121.527L78.2582 121.197C76.5796 126.012 79.1213 131.275 83.9353 132.954C88.7493 134.632 94.0127 132.09 95.6913 127.276L94.7471 126.947C93.2503 131.24 88.5571 133.506 84.2646 132.009ZM95.6891 127.275C97.1859 122.982 101.879 120.716 106.172 122.212C110.464 123.709 112.731 128.402 111.234 132.695L112.178 133.024C113.857 128.21 111.315 122.947 106.501 121.268C101.687 119.59 96.4235 122.131 94.7448 126.945L95.6891 127.275ZM112.178 133.025C110.681 137.317 112.948 142.011 117.24 143.507C121.533 145.004 126.226 142.738 127.723 138.445L128.667 138.774C126.988 143.588 121.725 146.13 116.911 144.452C112.097 142.773 109.555 137.51 111.234 132.696L112.178 133.025ZM128.668 138.774C130.165 134.482 134.858 132.215 139.15 133.712C143.443 135.209 145.709 139.902 144.213 144.195L145.157 144.524C146.835 139.71 144.294 134.447 139.48 132.768C134.666 131.089 129.402 133.631 127.724 138.445L128.668 138.774ZM145.157 144.524C143.66 148.817 145.927 153.51 150.219 155.007C154.512 156.504 159.205 154.237 160.702 149.945L161.646 150.274C159.967 155.088 154.704 157.63 149.89 155.951C145.076 154.273 142.534 149.009 144.213 144.195L145.157 144.524Z" fill="white"/>
<path fill-rule="evenodd" clip-rule="evenodd" d="M-2.46229 115.54C-6.75483 114.044 -11.448 116.31 -12.9448 120.602L-13.8891 120.273C-12.2104 115.459 -6.94707 112.917 -2.13304 114.596C2.68099 116.275 5.22272 121.538 3.54408 126.352L2.59984 126.023C4.09664 121.73 1.83024 117.037 -2.46229 115.54ZM3.54429 126.353C2.04749 130.645 4.31388 135.338 8.60642 136.835C12.899 138.332 17.5921 136.066 19.0889 131.773L20.0332 132.102C18.3545 136.916 13.0912 139.458 8.27716 137.779C3.46314 136.101 0.921403 130.837 2.60005 126.023L3.54429 126.353ZM20.0337 132.102C21.5305 127.81 26.2237 125.543 30.5163 127.04C34.8088 128.537 37.0752 133.23 35.5784 137.523L36.5226 137.852C38.2013 133.038 35.6595 127.775 30.8455 126.096C26.0315 124.417 20.7681 126.959 19.0895 131.773L20.0337 132.102ZM36.5231 137.852C35.0263 142.145 37.2927 146.838 41.5852 148.335C45.8777 149.832 50.5709 147.565 52.0677 143.273L52.0682 143.273C53.7469 138.459 59.0101 135.917 63.8241 137.596C68.6381 139.275 71.1798 144.538 69.5012 149.352L68.5569 149.023C70.0537 144.73 67.7873 140.037 63.4948 138.54C59.2023 137.043 54.5091 139.31 53.0123 143.602L53.0119 143.602C51.3331 148.416 46.0699 150.958 41.256 149.279C36.4419 147.6 33.9002 142.337 35.5788 137.523L36.5231 137.852Z" fill="white"/>
<path fill-rule="evenodd" clip-rule="evenodd" d="M74.5634 159.835C70.2709 158.339 68.0045 153.645 69.5013 149.353L68.557 149.024C66.8784 153.838 69.4201 159.101 74.2341 160.78C79.0482 162.458 84.3115 159.917 85.9902 155.103L85.0459 154.773C83.5491 159.066 78.8559 161.332 74.5634 159.835ZM85.9879 155.101C87.4847 150.808 92.1779 148.542 96.4704 150.039C100.763 151.535 103.029 156.229 101.533 160.521L102.477 160.85C104.155 156.036 101.614 150.773 96.7997 149.094C91.9857 147.416 86.7223 149.958 85.0437 154.772L85.9879 155.101ZM102.477 160.851C100.98 165.144 103.247 169.837 107.539 171.333C111.832 172.83 116.525 170.564 118.022 166.271L118.966 166.601C117.287 171.415 112.024 173.956 107.21 172.278C102.396 170.599 99.8541 165.336 101.533 160.522L102.477 160.851ZM118.967 166.6C120.463 162.308 125.157 160.041 129.449 161.538C133.742 163.035 136.008 167.728 134.511 172.021L135.456 172.35C137.134 167.536 134.592 162.273 129.778 160.594C124.964 158.915 119.701 161.457 118.022 166.271L118.967 166.6ZM135.456 172.351C133.959 176.643 136.225 181.336 140.518 182.833C144.81 184.33 149.504 182.063 151 177.771L151.945 178.1C150.266 182.914 145.003 185.456 140.189 183.777C135.375 182.099 132.833 176.835 134.512 172.021L135.456 172.351Z" fill="white"/>
</g>
<defs>
<clipPath id="clip0_36_174537">
<rect width="130" height="130" fill="white" transform="translate(42.8047) rotate(19.2236)"/>
</clipPath>
</defs>
</svg>
